<?xml version="1.0" standalone="no"?>
<!DOCTYPE svg PUBLIC "-//W3C//DTD SVG 20010904//EN"
 "http://www.w3.org/TR/2001/REC-SVG-20010904/DTD/svg10.dtd">
<svg version="1.0" xmlns="http://www.w3.org/2000/svg"
 width="200.000000pt" height="200.000000pt" viewBox="0 0 200.000000 200.000000"
 preserveAspectRatio="xMidYMid meet">

<g transform="translate(0.000000,200.000000) scale(0.100000,-0.100000)"
fill="#000000" stroke="none">
<path d="M820 1956 c-343 -72 -613 -303 -730 -626 -142 -388 -18 -833 303
-1088 126 -101 272 -168 427 -198 86 -17 281 -19 358 -4 415 79 725 397 792
813 17 105 8 288 -20 392 -76 282 -268 511 -536 637 -131 61 -216 80 -384 84
-97 2 -167 -1 -210 -10z m707 -608 c192 -192 203 -205 203 -240 l0 -38 -725 0
-725 0 0 35 0 35 630 0 c347 0 630 3 630 6 0 6 -155 222 -236 330 -22 28 -22
32 -8 52 8 12 18 22 22 22 4 0 98 -91 209 -202z m203 -445 l0 -33 -628 0
c-346 0 -631 -3 -634 -6 -4 -3 52 -86 123 -184 71 -98 129 -185 129 -193 0 -8
-7 -20 -15 -27 -13 -11 -45 18 -220 196 -174 179 -204 213 -204 240 -1 17 1
33 3 35 2 2 329 4 725 4 l721 0 0 -32z"/>
</g>
</svg>
